#Comment line ignore any data following # character 
#Hierarchical Translation and Rotation (.htr) file 
[Header]	
#Header keywords are followed by a single value 
FileType HTR		#Single word string
DataType HTRS		#Translation followed by rotation and scale data
FileVersion 1		#integer
NumSegments 64		#integer
NumFrames 3		#integer
DataFrameRate 30		#integer, data frame rate in this file
EulerRotationOrder ZYX
CalibrationUnits mm
RotationUnits Degrees
GlobalAxisofGravity Y
BoneLengthAxis Y
ScaleFactor 1.00
[SegmentNames&Hierarchy]
#CHILD	PARENT
Pinger_Root GLOBAL
Pelvis Pinger_Root
L_Hip Pelvis
R_Hip Pelvis
Rear_Leg01 Pelvis
Spine1 Pelvis
L_Leg01 L_Hip
L_Leg02 L_Leg01
L_Leg03 L_Leg02
L_Foot L_Leg03
L_Toe1_01 L_Foot
L_Toe2_01 L_Foot
L_Toe3_01 L_Foot
planeAlignerLeft L_Foot
L_Toe1_02 L_Toe1_01
L_Toe1_03 L_Toe1_02
L_Toe2_02 L_Toe2_01
L_Toe2_03 L_Toe2_02
L_Toe3_02 L_Toe3_01
L_Toe3_03 L_Toe3_02
planeLockWeightLeft planeAlignerLeft
R_Leg01 R_Hip
R_Leg02 R_Leg01
R_Leg03 R_Leg02
R_Foot R_Leg03
planeAlignerRight R_Foot
R_Toe1_01 R_Foot
R_Toe2_01 R_Foot
R_Toe3_01 R_Foot
planeLockWeightRight planeAlignerRight
R_Toe1_02 R_Toe1_01
R_Toe1_03 R_Toe1_02
R_Toe2_02 R_Toe2_01
R_Toe2_03 R_Toe2_02
R_Toe3_02 R_Toe3_01
R_Toe3_03 R_Toe3_02
Rear_Leg02 Rear_Leg01
Rear_Leg03 Rear_Leg02
Rear_Leg04 Rear_Leg03
Rear_Foot Rear_Leg04
planeAlignerCenter Rear_Foot
Rear_Toe1_01 Rear_Foot
Rear_Toe2_01 Rear_Foot
Rear_Toe3_01 Rear_Foot
planeLockWeightCenter planeAlignerCenter
Rear_Toe1_02 Rear_Toe1_01
Rear_Toe1_03 Rear_Toe1_02
Rear_Toe2_02 Rear_Toe2_01
Rear_Toe2_03 Rear_Toe2_02
Rear_Toe3_02 Rear_Toe3_01
Rear_Toe3_03 Rear_Toe3_02
Back_Bone Spine1
Head Spine1
Motor_Bone Back_Bone
Ping_Mechanism Back_Bone
BN_LookIK Head
bottomMouth Head
L_Mouth01 Head
L_mouthFront Head
mouthGun Head
R_Mouth01 Head
R_mouthFront Head
TopMouth Head
weapon_bone Head
[BasePosition]
#SegmentName Tx, Ty, Tz, Rx, Ry, Rz, BoneLength
Pinger_Root 0.000000 0.000000 0.000000 -90.000000 0.000000 0.000000 10.000000 
Pelvis 0.000000 0.000000 0.000000 0.000000 0.000000 0.000000 10.000000 
L_Hip 0.000000 0.000000 0.000000 0.000000 0.000000 0.000000 10.000000 
R_Hip 0.000000 0.000000 0.000000 0.000000 0.000000 0.000000 10.000000 
Rear_Leg01 0.000000 0.000000 0.000000 0.000000 0.000000 0.000000 10.000000 
Spine1 0.000000 0.000000 0.000000 0.000000 0.000000 0.000000 10.000000 
L_Leg01 0.000000 0.000000 0.000000 0.000000 0.000000 0.000000 10.000000 
L_Leg02 0.000000 0.000000 0.000000 0.000000 0.000000 0.000000 10.000000 
L_Leg03 0.000000 0.000000 0.000000 0.000000 0.000000 0.000000 10.000000 
L_Foot 0.000000 0.000000 0.000000 0.000000 0.000000 0.000000 10.000000 
L_Toe1_01 0.000000 0.000000 0.000000 0.000000 0.000000 0.000000 10.000000 
L_Toe2_01 0.000000 0.000000 0.000000 0.000000 0.000000 0.000000 10.000000 
L_Toe3_01 0.000000 0.000000 0.000000 0.000000 0.000000 0.000000 10.000000 
planeAlignerLeft 0.000000 0.000000 0.000000 0.000000 0.000000 0.000000 10.000000 
L_Toe1_02 0.000000 0.000000 0.000000 0.000000 0.000000 0.000000 10.000000 
L_Toe1_03 0.000000 0.000000 0.000000 0.000000 0.000000 0.000000 10.000000 
L_Toe2_02 0.000000 0.000000 0.000000 0.000000 0.000000 0.000000 10.000000 
L_Toe2_03 0.000000 0.000000 0.000000 0.000000 0.000000 0.000000 10.000000 
L_Toe3_02 0.000000 0.000000 0.000000 0.000000 0.000000 0.000000 10.000000 
L_Toe3_03 0.000000 0.000000 0.000000 0.000000 0.000000 0.000000 10.000000 
planeLockWeightLeft 0.000000 0.000000 0.000000 0.000000 0.000000 0.000000 10.000000 
R_Leg01 0.000000 0.000000 0.000000 0.000000 0.000000 0.000000 10.000000 
R_Leg02 0.000000 0.000000 0.000000 0.000000 0.000000 0.000000 10.000000 
R_Leg03 0.000000 0.000000 0.000000 0.000000 0.000000 0.000000 10.000000 
R_Foot 0.000000 0.000000 0.000000 0.000000 0.000000 0.000000 10.000000 
planeAlignerRight 0.000000 0.000000 0.000000 0.000000 0.000000 0.000000 10.000000 
R_Toe1_01 0.000000 0.000000 0.000000 0.000000 0.000000 0.000000 10.000000 
R_Toe2_01 0.000000 0.000000 0.000000 0.000000 0.000000 0.000000 10.000000 
R_Toe3_01 0.000000 0.000000 0.000000 0.000000 0.000000 0.000000 10.000000 
planeLockWeightRight 0.000000 0.000000 0.000000 0.000000 0.000000 0.000000 10.000000 
R_Toe1_02 0.000000 0.000000 0.000000 0.000000 0.000000 0.000000 10.000000 
R_Toe1_03 0.000000 0.000000 0.000000 0.000000 0.000000 0.000000 10.000000 
R_Toe2_02 0.000000 0.000000 0.000000 0.000000 0.000000 0.000000 10.000000 
R_Toe2_03 0.000000 0.000000 0.000000 0.000000 0.000000 0.000000 10.000000 
R_Toe3_02 0.000000 0.000000 0.000000 0.000000 0.000000 0.000000 10.000000 
R_Toe3_03 0.000000 0.000000 0.000000 0.000000 0.000000 0.000000 10.000000 
Rear_Leg02 0.000000 0.000000 0.000000 0.000000 0.000000 0.000000 10.000000 
Rear_Leg03 0.000000 0.000000 0.000000 0.000000 0.000000 0.000000 10.000000 
Rear_Leg04 0.000000 0.000000 0.000000 0.000000 0.000000 0.000000 10.000000 
Rear_Foot 0.000000 0.000000 0.000000 0.000000 0.000000 0.000000 10.000000 
planeAlignerCenter 0.000000 0.000000 0.000000 0.000000 0.000000 0.000000 10.000000 
Rear_Toe1_01 0.000000 0.000000 0.000000 0.000000 0.000000 0.000000 10.000000 
Rear_Toe2_01 0.000000 0.000000 0.000000 0.000000 0.000000 0.000000 10.000000 
Rear_Toe3_01 0.000000 0.000000 0.000000 0.000000 0.000000 0.000000 10.000000 
planeLockWeightCenter 0.000000 0.000000 0.000000 0.000000 0.000000 0.000000 10.000000 
Rear_Toe1_02 0.000000 0.000000 0.000000 0.000000 0.000000 0.000000 10.000000 
Rear_Toe1_03 0.000000 0.000000 0.000000 0.000000 0.000000 0.000000 10.000000 
Rear_Toe2_02 0.000000 0.000000 0.000000 0.000000 0.000000 0.000000 10.000000 
Rear_Toe2_03 0.000000 0.000000 0.000000 0.000000 0.000000 0.000000 10.000000 
Rear_Toe3_02 0.000000 0.000000 0.000000 0.000000 0.000000 0.000000 10.000000 
Rear_Toe3_03 0.000000 0.000000 0.000000 0.000000 0.000000 0.000000 10.000000 
Back_Bone 0.000000 0.000000 0.000000 0.000000 0.000000 0.000000 10.000000 
Head 0.000000 0.000000 0.000000 0.000000 0.000000 0.000000 10.000000 
Motor_Bone 0.000000 0.000000 0.000000 0.000000 0.000000 0.000000 10.000000 
Ping_Mechanism 0.000000 0.000000 0.000000 0.000000 0.000000 0.000000 10.000000 
BN_LookIK 0.000000 0.000000 0.000000 0.000000 0.000000 0.000000 10.000000 
bottomMouth 0.000000 0.000000 0.000000 0.000000 0.000000 0.000000 10.000000 
L_Mouth01 0.000000 0.000000 0.000000 0.000000 0.000000 0.000000 10.000000 
L_mouthFront 0.000000 0.000000 0.000000 0.000000 0.000000 0.000000 10.000000 
mouthGun 0.000000 0.000000 0.000000 0.000000 0.000000 0.000000 10.000000 
R_Mouth01 0.000000 0.000000 0.000000 0.000000 0.000000 0.000000 10.000000 
R_mouthFront 0.000000 0.000000 0.000000 0.000000 0.000000 0.000000 10.000000 
TopMouth 0.000000 0.000000 0.000000 0.000000 0.000000 0.000000 10.000000 
weapon_bone 0.000000 0.000000 0.000000 0.000000 0.000000 0.000000 10.000000 
#Beginning of Data. Separated by tabs
#Fr	Tx	Ty	Tz	Rx	Ry	Rz	SF
[Pinger_Root]
14 0.000000 -1685.185547 0.000000 -0.000075 -0.000000 -0.000020 1685.185547
15 0.000000 -1814.815063 0.000000 -0.000075 -0.000000 -0.000020 1814.815063
16 0.000000 -1944.444824 0.000000 -0.000075 -0.000000 -0.000020 1944.444824
[Pelvis]
14 -301.863617 374.418884 5111.394043 -99.473602 -71.507187 99.696831 5133.971191
15 -311.320526 344.070709 5052.400391 -102.182106 -71.236359 100.748512 5073.663086
16 -332.125824 301.693115 4993.055176 -104.836105 -70.950142 101.744766 5013.175293
[L_Hip]
14 5.766392 125.831482 872.656799 -178.250168 -81.786369 87.376007 881.701050
15 5.766392 125.831482 872.656799 -178.250168 -81.786369 87.376007 881.701050
16 5.766392 125.831482 872.656799 -178.250168 -81.786369 87.376007 881.701050
[R_Hip]
14 5.765438 125.836372 -872.654907 -1.748770 81.786041 87.376961 881.699829
15 5.765438 125.836372 -872.654907 -1.748770 81.786041 87.376961 881.699829
16 5.765438 125.836372 -872.654907 -1.748770 81.786041 87.376961 881.699829
[Rear_Leg01]
14 -192.298416 -925.602966 -0.001907 177.725082 -0.804160 167.050827 945.367432
15 -192.298416 -925.602966 -0.001907 176.190826 -0.937753 167.225647 945.367432
16 -192.298416 -925.602966 -0.001907 174.576080 -0.678161 169.041504 945.367432
[Spine1]
14 290.604584 5.007505 0.000477 3.576509 3.191997 2.950678 290.647736
15 290.604584 5.007505 0.000477 5.063509 3.539152 2.317778 290.647736
16 290.604584 5.007505 0.000477 6.622318 3.863947 1.362125 290.647736
[L_Leg01]
14 761.932007 -0.002384 -0.069261 57.883598 -52.694050 -56.773804 761.932068
15 761.932007 -0.002384 -0.069261 50.790619 -54.793137 -49.456306 761.932068
16 761.932007 -0.002384 -0.069261 41.759911 -56.612007 -40.234936 761.932068
[L_Leg02]
14 1441.140503 -0.000954 -0.000715 -1.108247 0.434032 -111.616791 1441.140503
15 1441.140503 -0.000954 -0.000715 -0.702924 0.277861 -115.860321 1441.140503
16 1441.140503 -0.000954 -0.000715 -0.287160 0.152113 -120.104790 1441.140503
[L_Leg03]
14 1686.963989 -0.000715 -0.000954 0.033294 -0.006883 101.553932 1686.963989
15 1686.963989 -0.000715 -0.000954 0.029369 -0.010281 102.609726 1686.963989
16 1686.963989 -0.000715 -0.000954 0.025975 -0.008878 103.224678 1686.963989
[L_Foot]
14 3041.570068 -30.715107 11.297464 -8.063403 15.848957 55.948204 3041.746094
15 3041.570068 -30.715107 11.297464 -7.437102 14.839521 55.143593 3041.746094
16 3041.570068 -30.715107 11.297464 -6.799069 13.838710 54.331276 3041.746094
[L_Toe1_01]
14 -188.216690 -224.732346 -21.137953 89.227394 -1.823848 -159.568710 293.899567
15 -188.216690 -224.732346 -21.137953 89.186798 -1.801661 -158.273087 293.899567
16 -188.216690 -224.732346 -21.137953 89.146729 -1.778566 -156.977676 293.899567
[L_Toe2_01]
14 200.746536 -219.926590 148.838394 -77.058792 -13.048759 -47.483715 332.896027
15 200.746536 -219.926590 148.838394 -76.798744 -12.830651 -48.668118 332.896027
16 200.746536 -219.926590 148.838394 -76.543625 -12.607376 -49.850338 332.896027
[L_Toe3_01]
14 188.832520 -219.859131 -191.078659 -106.845589 16.194588 -49.420246 347.140900
15 188.832520 -219.859131 -191.078659 -107.166161 15.910634 -50.602543 347.140900
16 188.832520 -219.859131 -191.078659 -107.480049 15.620416 -51.781342 347.140900
[planeAlignerLeft]
14 -58.791512 -655.568604 0.070114 0.000000 -90.000000 -90.001900 658.199585
15 -61.724094 -669.167297 0.066986 0.000000 -90.000000 -90.001900 672.007996
16 -64.048874 -685.858398 0.064036 0.000000 -90.000000 -90.001900 688.842529
[L_Toe1_02]
14 413.761139 0.000477 0.000000 0.001395 -24.614794 0.001395 413.761139
15 413.761139 0.000477 0.000000 0.001393 -24.835148 0.001393 413.761139
16 413.761139 0.000477 0.000000 0.001391 -25.055490 0.001391 413.761139
[L_Toe1_03]
14 464.317322 0.000358 -0.000089 0.006744 69.955124 0.006744 464.317322
15 464.317322 0.000358 -0.000089 0.006153 68.004257 0.006153 464.317322
16 464.317322 0.000358 -0.000089 0.005657 66.053360 0.005657 464.317322
[L_Toe2_02]
14 342.235809 -0.000477 0.000238 0.001180 -78.272591 0.001180 342.235809
15 342.235809 -0.000477 0.000238 0.001180 -78.111877 0.001180 342.235809
16 342.235809 -0.000477 0.000238 0.001180 -77.951012 0.001180 342.235809
[L_Toe2_03]
14 420.210846 -0.000715 0.000000 -179.997620 74.060326 -179.994095 420.210846
15 420.210846 -0.000715 0.000000 -179.997360 74.995834 -179.993835 420.210846
16 420.210846 -0.000715 0.000000 -179.996902 76.416893 -179.993378 420.210846
[L_Toe3_02]
14 329.270111 0.000954 0.000000 0.001177 -81.784744 0.001177 329.270111
15 329.270111 0.000954 0.000000 0.001177 -81.579414 0.001177 329.270111
16 329.270111 0.000954 0.000000 0.001177 -81.374176 0.001177 329.270111
[L_Toe3_03]
14 439.137451 -0.001907 0.000954 -179.998047 72.265205 -179.994507 439.137451
15 439.137451 -0.001907 0.000954 -179.997787 73.448341 -179.994247 439.137451
16 439.137451 -0.001907 0.000954 -179.997467 74.631592 -179.993942 439.137451
[planeLockWeightLeft]
14 999.999023 0.098114 0.076156 -0.011826 -0.004376 0.005620 999.999023
15 999.999023 0.098120 0.076147 -0.011826 -0.004376 0.005620 999.999023
16 999.999023 0.098126 0.076139 -0.011826 -0.004376 0.005620 999.999023
[R_Leg01]
14 761.455627 -0.001907 -0.000358 -160.541840 -76.404221 -28.858055 761.455688
15 761.455627 -0.001907 -0.000358 -145.132629 -75.328972 -44.529423 761.455688
16 761.455627 -0.001907 -0.000358 -152.152969 -77.207268 -37.560581 761.455688
[R_Leg02]
14 1441.140625 0.000000 -0.000238 0.087328 -0.083723 -127.318924 1441.140625
15 1441.140625 0.000000 -0.000238 -0.098211 -0.010913 -136.968979 1441.140625
16 1441.140625 0.000000 -0.000238 -0.260016 0.028702 -142.651855 1441.140625
[R_Leg03]
14 1686.963989 0.000954 0.001431 -0.081856 0.012287 87.616310 1686.963989
15 1686.963989 0.000954 0.001431 -0.074659 0.013613 89.425629 1686.963989
16 1686.963989 0.000954 0.001431 -0.053179 0.009738 95.889618 1686.963989
[R_Foot]
14 3041.560059 -30.531288 -11.204481 3.843141 -27.671448 70.898827 3041.734131
15 3041.560059 -30.531288 -11.204481 4.875618 -27.172550 73.594688 3041.734131
16 3041.560059 -30.531288 -11.204481 7.128713 -26.363880 71.467422 3041.734131
[planeAlignerRight]
14 -89.948799 -835.916260 15.195768 0.000000 -89.960434 -90.005180 840.879150
15 -112.456482 -830.009888 14.665374 0.000000 -89.960434 -90.005180 837.721863
16 -134.964188 -824.103516 14.134979 0.000000 -89.960434 -90.005180 835.201660
[R_Toe1_01]
14 -188.383347 -224.864899 21.052242 91.195190 0.706055 -143.391205 294.101532
15 -188.383347 -224.864899 21.052242 91.250786 0.697646 -145.323105 294.101532
16 -188.383347 -224.864899 21.052242 91.367470 0.670325 -145.135452 294.101532
[R_Toe2_01]
14 200.637817 -220.002121 -148.787384 -105.702843 9.324110 -63.177227 332.857574
15 200.637817 -220.002121 -148.787384 -106.443520 8.263463 -68.974892 332.857574
16 200.637817 -220.002121 -148.787384 -107.191780 6.431865 -77.165421 332.857574
[R_Toe3_01]
14 188.606735 -220.092957 191.126343 -69.015007 -13.361754 -65.602226 347.192566
15 188.606735 -220.092957 191.126343 -68.287704 -12.140873 -71.115257 347.192566
16 188.606735 -220.092957 191.126343 -67.553314 -9.877200 -78.879135 347.192566
[planeLockWeightRight]
14 -0.000000 -0.000458 0.076561 -0.011823 -0.004379 -0.000027 0.076562
15 -0.000044 -0.000480 0.076539 -0.011823 -0.004379 -0.000027 0.076541
16 -0.000087 -0.000501 0.076517 -0.011823 -0.004379 -0.000027 0.076519
[R_Toe1_02]
14 413.762085 0.000477 -0.000119 0.001387 -25.581667 0.001387 413.762085
15 413.762085 0.000477 -0.000119 0.001390 -25.226784 0.001390 413.762085
16 413.762085 0.000477 -0.000119 0.001407 -23.067171 0.001407 413.762085
[R_Toe1_03]
14 464.317810 0.000000 0.001088 0.003079 45.190475 0.003079 464.317810
15 464.317810 0.000000 0.001088 0.005509 65.399803 0.005509 464.317810
16 464.317810 0.000000 0.001088 0.011458 78.241882 0.011458 464.317810
[R_Toe2_02]
14 342.234741 -0.000954 0.000238 -0.002339 -76.967186 -0.002339 342.234741
15 342.234741 -0.000954 0.000238 -0.002333 -79.229172 -0.002333 342.234741
16 342.234741 -0.000954 0.000238 -0.002332 -80.040443 -0.002332 342.234741
[R_Toe2_03]
14 420.210846 0.000715 -0.000268 -179.991928 79.554810 -179.995438 420.210846
15 420.210846 0.000715 -0.000268 -179.995148 68.506821 -179.998703 420.210846
16 420.210846 0.000715 -0.000268 -179.995804 62.392166 -179.999390 420.210846
[R_Toe3_02]
14 329.270355 -0.000477 -0.000954 0.001178 -80.360687 0.001178 329.270355
15 329.270355 -0.000477 -0.000954 0.001176 -82.662041 0.001176 329.270355
16 329.270355 -0.000477 -0.000954 0.001175 -83.607292 0.001175 329.270355
[R_Toe3_03]
14 439.137939 0.000238 0.001431 -179.995728 79.060188 -179.992218 439.137939
15 439.137939 0.000238 0.001431 -179.998749 68.154152 -179.995178 439.137939
16 439.137939 0.000238 0.001431 -179.999451 61.837952 -179.995834 439.137939
[Rear_Leg02]
14 1162.777710 -0.029802 0.005960 -2.569281 -8.740819 -102.743172 1162.777710
15 1162.777710 -0.029802 0.005960 -0.924008 -5.665148 -108.298149 1162.777710
16 1162.777710 -0.029802 0.005960 -0.049432 -2.920004 -112.115829 1162.777710
[Rear_Leg03]
14 607.192505 -0.013351 -0.073195 0.006655 -0.001445 52.712429 607.192505
15 607.192505 -0.013351 -0.073195 0.006618 -0.001630 55.884262 607.192505
16 607.192505 -0.013351 -0.073195 0.006570 -0.001813 59.058548 607.192505
[Rear_Leg04]
14 995.874512 -0.020504 -0.011921 -0.035579 -0.017438 37.779987 995.874573
15 995.874512 -0.020504 -0.011921 -0.036311 -0.015858 42.816704 995.874573
16 995.874512 -0.020504 -0.011921 -0.038119 -0.016305 48.523251 995.874573
[Rear_Foot]
14 3096.176270 -0.067472 -0.041425 -113.103790 81.844498 84.930450 3096.176270
15 3096.176270 -0.067472 -0.041425 -96.764755 85.160988 98.931160 3096.176270
16 3096.176270 -0.067472 -0.041425 -53.002682 86.840866 139.660355 3096.176270
[planeAlignerCenter]
14 1.037941 76.573647 -655.726074 0.000009 0.000003 -179.999985 660.182739
15 1.037807 27.561855 -663.603638 0.000009 0.000003 -179.999985 664.176575
16 1.037674 -21.449963 -671.481262 0.000009 0.000003 -179.999985 671.824585
[Rear_Toe1_01]
14 0.653352 83.966492 -371.173737 0.058775 18.488413 90.030830 380.553192
15 0.653352 83.966492 -371.173737 0.056830 17.186281 90.032692 380.553192
16 0.653352 83.966492 -371.173737 0.062736 16.316715 90.026787 380.553192
[Rear_Toe2_01]
14 178.200760 -294.826019 -362.060547 0.822403 43.175781 -69.999214 499.765686
15 178.200760 -294.826019 -362.060547 0.286957 43.858093 -71.193962 499.765686
16 178.200760 -294.826019 -362.060547 -0.274487 44.532009 -72.411339 499.765686
[Rear_Toe3_01]
14 -153.359680 -308.780914 -362.060852 -1.042435 43.196747 -112.449112 499.952881
15 -153.359680 -308.780914 -362.060852 -0.448789 43.871082 -111.123116 499.952881
16 -153.359680 -308.780914 -362.060852 0.173292 44.535091 -109.772369 499.952881
[planeLockWeightCenter]
14 1000.000244 -0.000206 0.076238 -0.011814 -0.004373 -0.000015 1000.000244
15 1000.000244 -0.000190 0.076239 -0.011814 -0.004373 -0.000015 1000.000244
16 1000.000244 -0.000173 0.076239 -0.011814 -0.004373 -0.000015 1000.000244
[Rear_Toe1_02]
14 379.707825 0.194073 0.000477 -0.000767 -33.624729 0.000838 379.707855
15 379.707825 0.194073 0.000477 -0.000767 -33.624729 0.000838 379.707855
16 379.707825 0.194073 0.000477 -0.000767 -33.624729 0.000838 379.707855
[Rear_Toe1_03]
14 500.129700 0.165701 0.000119 0.009589 75.940132 0.009589 500.129761
15 500.129700 0.165701 0.000119 -0.009617 84.203598 -0.013118 500.129761
16 500.129700 0.165701 0.000119 -179.952988 88.544647 -179.956482 500.129761
[Rear_Toe2_02]
14 340.494507 0.000238 -0.000954 -0.002324 -86.717178 -0.002324 340.494507
15 340.494507 0.000238 -0.000954 0.001175 -83.653687 0.001175 340.494507
16 340.494507 0.000238 -0.000954 0.001179 -79.845009 0.001179 340.494507
[Rear_Toe2_03]
14 433.103577 0.000000 0.000238 -179.993301 76.638176 -179.996826 433.103546
15 433.103577 0.000000 0.000238 179.975616 84.483925 179.975616 433.103546
16 433.103577 0.000000 0.000238 0.046653 87.116768 0.046653 433.103546
[Rear_Toe3_02]
14 340.494141 -0.000358 -0.000477 0.001174 -86.621941 0.001174 340.494171
15 340.494141 -0.000358 -0.000477 0.001175 -83.587364 0.001175 340.494171
16 340.494141 -0.000358 -0.000477 0.001179 -79.818123 0.001179 340.494171
[Rear_Toe3_03]
14 433.103577 0.001431 -0.000238 -179.996735 76.890526 -179.993210 433.103546
15 433.103577 0.001431 -0.000238 -179.989456 84.637650 -179.985962 433.103546
16 433.103577 0.001431 -0.000238 -0.024171 87.062355 -0.020673 433.103546
[Back_Bone]
14 1312.175781 -701.934692 0.000954 -2.028958 -3.649432 -80.802025 1488.125488
15 1312.175781 -701.934692 0.000954 -1.695368 -3.648055 -80.517944 1488.125488
16 1312.175781 -701.934692 0.000954 -1.361781 -3.648327 -80.233856 1488.125488
[Head]
14 1406.159424 809.709290 0.001431 -4.244908 -1.167891 22.529961 1622.625488
15 1406.159424 809.709290 0.001431 -4.007696 -1.490656 23.780897 1622.625488
16 1406.159424 809.709290 0.001431 -3.665704 -1.770054 24.394053 1622.625488
[Motor_Bone]
14 1158.364380 -417.834747 0.000477 -1.029631 1.419345 -104.575356 1231.419434
15 1158.364380 -417.834747 0.000477 -0.583225 2.827931 -103.156052 1231.419434
16 1158.364380 -417.834747 0.000477 0.001255 -0.033980 -106.020981 1231.419434
[Ping_Mechanism]
14 1302.032471 -464.051208 -17.036823 0.000103 -0.000053 82.120995 1382.361206
15 1303.496704 -463.560150 -18.827974 0.000103 -0.000053 82.120995 1383.598999
16 1304.960815 -463.069153 -20.619127 0.000103 -0.000053 82.120995 1384.839722
[BN_LookIK]
14 193.241119 1380.371704 -0.002861 0.000000 89.965736 -31.038179 1393.832153
15 193.241119 1380.371704 -0.002861 0.000000 89.965736 -31.038179 1393.832153
16 193.241119 1380.371704 -0.002861 0.000000 89.965736 -31.038179 1393.832153
[bottomMouth]
14 -435.092926 615.759399 -0.000954 -0.000022 0.000016 73.527184 753.966492
15 -435.092926 615.759399 -0.000954 -0.000022 0.000016 73.527184 753.966492
16 -435.092926 615.759399 -0.000954 -0.000022 0.000016 73.527184 753.966492
[L_Mouth01]
14 554.440979 7.658243 838.222046 150.204178 23.759130 109.605339 1005.027161
15 554.440979 7.658243 838.222046 150.204178 23.759130 109.605339 1005.027161
16 554.440979 7.658243 838.222046 150.204178 23.759130 109.605339 1005.027161
[L_mouthFront]
14 551.629089 934.514771 339.150421 0.000081 2.804060 79.119301 1136.941284
15 551.629089 934.514771 339.150421 0.000081 2.804060 79.119301 1136.941284
16 551.629089 934.514771 339.150421 0.000081 2.804060 79.119301 1136.941284
[mouthGun]
14 55.332661 1627.420898 0.000000 0.000023 0.000009 -11.038128 1628.361328
15 55.332661 1627.420898 0.000000 0.000023 0.000009 -11.038128 1628.361328
16 55.332661 1627.420898 0.000000 0.000023 0.000009 -11.038128 1628.361328
[R_Mouth01]
14 554.442383 7.659197 -838.223938 29.795891 -23.759109 109.605331 1005.029541
15 554.442383 7.659197 -838.223938 29.795891 -23.759109 109.605331 1005.029541
16 554.442383 7.659197 -838.223938 29.795891 -23.759109 109.605331 1005.029541
[R_mouthFront]
14 551.629089 934.514282 -339.151367 0.000029 -2.803930 79.119133 1136.941162
15 551.629089 934.514282 -339.151367 0.000029 -2.803930 79.119133 1136.941162
16 551.629089 934.514282 -339.151367 0.000029 -2.803930 79.119133 1136.941162
[TopMouth]
14 461.269867 -56.106091 -0.008583 -0.000059 -0.000268 92.025169 464.669525
15 461.269867 -56.106091 -0.008583 -0.000059 -0.000268 92.025169 464.669525
16 461.269867 -56.106091 -0.008583 -0.000059 -0.000268 92.025169 464.669525
[weapon_bone]
14 -987.239868 1448.372803 0.001431 0.000000 89.965736 -31.038221 1752.833740
15 -987.239868 1448.372803 0.001431 0.000000 89.965736 -31.038221 1752.833740
16 -987.239868 1448.372803 0.001431 0.000000 89.965736 -31.038221 1752.833740
